inDegrees=yes
name=ik_rai_1
DataType=double
version=3
OpenSimVersion=4.5
endheader
time	gndpitch	gndroll	gndyaw	spine_tx	spine_ty	spine_tz	pitch2	roll2	yaw2	aux7jnt_r3	aux7jnt_r1	aux7jnt_r2	aux6jnt_r3	aux6jnt_r1	aux6jnt_r2	aux5jnt_r3	aux5jnt_r1	aux5jnt_r2	aux4jnt_r3	aux4jnt_r1	aux4jnt_r2	aux3jnt_r3	aux3jnt_r1	aux3jnt_r2	pitch1	roll1	yaw1	aux1jnt_r3	aux1jnt_r1	aux1jnt_r2
90.42500000000344	4.21296440140691e-09	8.002416233845703e-10	4.440363815649541e-10	-3.97872216927308e-17	8.44526185968539e-17	-7.30666612219483e-19	-0.3439886202896165	0.07946907737449005	-0.4561387358641541	-3.685604253581924	0.6237937068927811	-4.913346395274551	-4.335994376001859	0.7148596051258369	-5.723522508782117	-4.335994376001859	0.9834997003689384	-5.723522508782117	-3.251995782001392	0.9834997003689384	-5.723522508782117	-2.16799718800093	0.89243641095068	-2.456673197637275	0.4169214974603463	-0.009989074909161618	0.5153390011580505	13.2816336895448	-0.2861659167674962	3.277475485620112
90.45000000000344	4.21296440140691e-09	8.002416233845703e-10	4.440363815649541e-10	-3.97872216927308e-17	8.44526185968539e-17	-7.30666612219483e-19	-0.3556145400912055	0.07589261684438361	-0.4559078082130506	-3.810168081991313	0.5957202266745893	-4.910858933778941	-4.482539697277591	0.6826877560649534	-5.720624882456899	-4.482539697277591	0.9392378569456739	-5.720624882456899	-3.361904772958193	0.9392378569456739	-5.720624882456899	-2.241269848638796	0.8522728189618863	-2.45542946688947	0.4169184157002282	-0.007288303651155442	0.5070286813457108	13.28153551564574	-0.2087945195104949	3.224623150746559
90.47500000000345	4.21296440140691e-09	8.002416233845703e-10	4.440363815649541e-10	-3.97872216927308e-17	8.44526185968539e-17	-7.30666612219483e-19	-0.3672789873487725	0.07365744660764428	-0.4560908811173358	-3.935144705903976	0.5781752245986043	-4.91283092283319	-4.629570659131501	0.6625814082172878	-5.722922038576387	-4.629570659131501	0.9115756601424118	-5.722922038576387	-3.472177994348626	0.9115756601424118	-5.722922038576387	-2.31478532956575	0.8271718945540255	-2.456415461416595	0.4169072567552546	-0.006032246815953936	0.4996153219294189	13.28118003141093	-0.1728111417676974	3.177475343772143
90.50000000000345	4.21296440140691e-09	8.002416233845703e-10	4.440363815649541e-10	-3.97872216927308e-17	8.44526185968539e-17	-7.30666612219483e-19	-0.3789141861517314	0.07360391821622635	-0.4558681931368889	-4.059807952506007	0.5777550526926271	-4.91043221581716	-4.77623294270012	0.6620998965901681	-5.720127801717485	-4.77623294270012	0.910913199237364	-5.720127801717485	-3.58217470702509	0.910913199237364	-5.720127801717485	-2.38811647135006	0.8265707716128854	-2.45521610790858	0.416898181869599	-0.006876364529312511	0.4921516478484617	13.28089093788186	-0.196993332961533	3.130007543396029
90.52500000000346	4.21296440140691e-09	8.002416233845703e-10	4.440363815649541e-10	-3.97872216927308e-17	8.44526185968539e-17	-7.30666612219483e-19	-0.3908865992853219	0.07539913723099205	-0.4565519954351622	-4.188084221452493	0.5918466510967207	-4.917797864233177	-4.927145830372716	0.6782486880246327	-5.728707993527573	-4.927145830372716	0.9331306128710809	-5.728707993527573	-3.695359372779538	0.9331306128710809	-5.728707993527573	-2.463572915186358	0.8467310511497722	-2.458898932116588	0.4168876743765386	-0.009397991915303607	0.4857036013281844	13.28055620658429	-0.2692326363224805	3.088998975535154
90.55000000000346	4.21296440140691e-09	8.002416233845703e-10	4.440363815649541e-10	-3.97872216927308e-17	8.44526185968539e-17	-7.30666612219483e-19	-0.4030745517405979	0.07955582493863785	-0.4565305637816668	-4.318669847726408	0.6244746331900471	-4.917567010922182	-5.080775602359247	0.7156399379483799	-5.728439074136304	-5.080775602359247	0.9845732777422476	-5.728439074136304	-3.810581701769436	0.9845732777422476	-5.728439074136304	-2.540387801179623	0.8934105846464703	-2.458783505461091	0.4168645989140585	-0.01448912258810712	0.4785077016839404	13.27982110455251	-0.415082786573104	3.043234178715983
90.57500000000347	4.21296440140691e-09	8.002416233845703e-10	4.440363815649541e-10	-3.97872216927308e-17	8.44526185968539e-17	-7.30666612219483e-19	-0.4158157548137277	0.0815394745744822	-0.4563650655358281	-4.455183178320143	0.6400453205618006	-4.915784329150868	-5.241379127040024	0.7334837464112021	-5.726362440733471	-5.241379127040024	1.009122685976803	-5.726362440733471	-3.931034345280018	1.009122685976803	-5.726362440733471	-2.620689563520012	0.9156869369093004	-2.457892164575434	0.4168412814807771	-0.01715952656489262	0.4704589562555323	13.27907829419298	-0.4915842253054851	2.992045416032925
90.60000000000348	4.21296440140691e-09	8.002416233845703e-10	4.440363815649541e-10	-3.97872216927308e-17	8.44526185968539e-17	-7.30666612219483e-19	-0.4287108714272235	0.08104696228575015	-0.4559473618708545	-4.593345587882181	0.6361793380132609	-4.911284990166419	-5.403922739869219	0.7290533798853223	-5.721121192533079	-5.403922739869219	1.003027413395328	-5.721121192533079	-4.052942054901914	1.003027413395328	-5.721121192533079	-2.701961369934609	0.9101560321369495	-2.45564249508321	0.4168251808548322	-0.01740131148347906	0.4615608610590438	13.27856538560641	-0.4985108529979428	2.935454921601742
